# xmcd
# 
# Track frame offsets:
#     150
#     31909
#     61031
#     92791
# 
# Disc length: 1621
# 
# Revision: 1
# Processed by: cddbd v1.5.2PL0 Copyright (c) Steve Scherf et al.
# Submitted via: fre:ac v1.0.17
# 
DISCID=26065304
DTITLE=やくしまるえつこメトロオーケストラ - ノルニル・少年よ我に帰れ
DYEAR=2011
DGENRE=Soundtrack
TTITLE0=ノルニル
TTITLE1=少年よ我に帰れ
TTITLE2=ノルニル (off vocal ver.)
TTITLE3=少年よ我に帰れ (off vocal ver.)
EXTD=
EXTT0=
EXTT1=
EXTT2=
EXTT3=
PLAYORDER=
